<?xml version="1.0" encoding="utf-8"?>
<!-- Generator: Adobe Illustrator 24.3.0, SVG Export Plug-In . SVG Version: 6.00 Build 0)  -->
<svg version="1.1" id="Layer_1" xmlns="http://www.w3.org/2000/svg" xmlns:xlink="http://www.w3.org/1999/xlink" x="0px" y="0px"
	 viewBox="0 0 1920 615" style="enable-background:new 0 0 1920 615;" xml:space="preserve">
<style type="text/css">
	.st0{fill:#7E76F9;}
	.st1{fill:#1A129F;}
</style>
<g id="Layer_2_1_">
	<g id="Layer_5">
		<path class="st0" d="M1920,0v615H909.4c25.9-210.9,87.8-282.4,147.8-302.7c171.4-58,389.7,280.5,552.1,215.7
			c162.7-64.9,55.7-448.9,203.9-518.2c12.4-5.7,25.7-9.1,39.4-9.9H1920z"/>
		<path class="st1" d="M1920,562.8V615H0V67.4c86.7,2,185.8,43.2,228,110.6c72.2,115.4-29.6,296,0,309
			c32.5,14.3,101.3-226.5,254-260c159.8-35.1,229.5,196.9,460,228c240.1,32.4,328.9-197.3,568-176
			C1678.1,294,1857.7,427.3,1920,562.8z"/>
	</g>
</g>
</svg>
