<svg xmlns="http://www.w3.org/2000/svg" viewBox="0 0 785.5 528.61"><defs><style>.cls-1,.cls-2{fill:#1a129f;}.cls-1{opacity:0.73;}</style></defs><g id="Layer_2" data-name="Layer 2"><g id="Layer_2-2" data-name="Layer 2"><path class="cls-1" d="M785.5,275.79V526.61H0V11H2.43A66.34,66.34,0,0,1,19.9,13.32C123.13,41.28,148,300.07,247.69,322c104.22,22.86,176.09-238,245.5-209.39,41.64,17.1,20.32,113.14,84,163.17C635.32,321.56,713.51,289.12,785.5,275.79Z"/><path class="cls-2" d="M785.5,125.78V528.61H0V281.2c10.21,13.91,21.88,23.68,36.77,25.22,90.36,9.28,146.32-299.66,249-296,83.48,3,116.93,210.26,197.29,208.93C565.21,218,608.41,0,663.31,0a21.38,21.38,0,0,1,3.63.32c34,6,22.13,88.8,75.33,117.5C755.88,125.18,770.4,127.21,785.5,125.78Z"/></g></g></svg>